<!-- Generator: Adobe Illustrator 19.2.1, SVG Export Plug-In  -->
<svg version="1.1"
	 xmlns="http://www.w3.org/2000/svg" xmlns:xlink="http://www.w3.org/1999/xlink" xmlns:a="http://ns.adobe.com/AdobeSVGViewerExtensions/3.0/"
	 x="0px" y="0px" width="225.77px" height="135.695px" viewBox="0 0 225.77 135.695"
	 style="enable-background:new 0 0 225.77 135.695;" xml:space="preserve">
<style type="text/css">
	.st0{fill:#231815;}
	.st1{fill:#FFFFFF;}
</style>
<defs>
</defs>
<g>
	<path class="st0" d="M217.939,115.237H50.622c-4.317,0-7.83-3.513-7.83-7.83V7.831c0-4.318,3.513-7.831,7.83-7.831h167.317
		c4.317,0,7.83,3.513,7.83,7.831v99.576C225.77,111.724,222.257,115.237,217.939,115.237z M50.622,2c-3.215,0-5.83,2.616-5.83,5.831
		v99.576c0,3.215,2.615,5.83,5.83,5.83h167.317c3.215,0,5.83-2.615,5.83-5.83V7.831c0-3.215-2.615-5.831-5.83-5.831H50.622z"/>
	<g>
		<rect x="111.034" y="114.237" class="st1" width="46.494" height="7.562"/>
		<path class="st0" d="M158.528,122.798h-48.495v-9.562h48.495V122.798z M112.033,120.798h44.495v-5.562h-44.495V120.798z"/>
	</g>
	<g>
		<path class="st1" d="M168.3,126.501h-68.038c-1.299,0-2.352-1.053-2.352-2.352l0,0c0-1.299,1.053-2.352,2.352-2.352H168.3
			c1.299,0,2.352,1.053,2.352,2.352l0,0C170.651,125.449,169.599,126.501,168.3,126.501z"/>
		<path class="st0" d="M168.3,127.501h-68.038c-1.848,0-3.352-1.504-3.352-3.352s1.504-3.352,3.352-3.352H168.3
			c1.848,0,3.352,1.504,3.352,3.352S170.147,127.501,168.3,127.501z M100.262,122.798c-0.745,0-1.352,0.606-1.352,1.352
			s0.606,1.352,1.352,1.352H168.3c0.745,0,1.352-0.606,1.352-1.352s-0.606-1.352-1.352-1.352H100.262z"/>
	</g>
	<path class="st0" d="M218.504,108.345H50.058V6.417h168.446V108.345z M52.058,106.345h164.446V8.417H52.058V106.345z"/>
</g>
<g>
	<g>
		<path class="st1" d="M86.956,134.695H4.953c-2.184,0-3.954-1.77-3.954-3.954V76.89c0-2.184,1.77-3.954,3.954-3.954h82.003
			c2.184,0,3.954,1.77,3.954,3.954v53.851C90.91,132.924,89.14,134.695,86.956,134.695z"/>
		<path class="st0" d="M86.956,135.695H4.953c-2.731,0-4.953-2.223-4.953-4.954V76.89c0-2.732,2.222-4.954,4.953-4.954h82.003
			c2.731,0,4.954,2.222,4.954,4.954v53.851C91.91,133.472,89.688,135.695,86.956,135.695z M4.953,73.936
			C3.325,73.936,2,75.261,2,76.89v53.851c0,1.629,1.325,2.954,2.953,2.954h82.003c1.629,0,2.954-1.325,2.954-2.954V76.89
			c0-1.629-1.325-2.954-2.954-2.954H4.953z"/>
	</g>
	<g>
		<path class="st1" d="M50.47,131.343h-9.031c-1.743,0-3.156-1.413-3.156-3.156l0,0c0-1.743,1.413-3.156,3.156-3.156h9.031
			c1.743,0,3.156,1.413,3.156,3.156l0,0C53.626,129.93,52.213,131.343,50.47,131.343z"/>
		<path class="st0" d="M50.471,132.343h-9.031c-2.292,0-4.156-1.864-4.156-4.156c0-2.291,1.864-4.155,4.156-4.155h9.031
			c2.291,0,4.155,1.864,4.155,4.155C54.626,130.479,52.762,132.343,50.471,132.343z M41.439,126.032
			c-1.188,0-2.156,0.967-2.156,2.155s0.968,2.156,2.156,2.156h9.031c1.188,0,2.155-0.968,2.155-2.156s-0.967-2.155-2.155-2.155
			H41.439z"/>
	</g>
	<g>
		<rect x="6.96" y="77.685" class="st1" width="77.991" height="44.166"/>
		<path class="st0" d="M85.95,122.851H5.96V76.685h79.99V122.851z M7.96,120.851h75.99V78.685H7.96V120.851z"/>
	</g>
</g>
</svg>