<!-- Generator: Adobe Illustrator 19.2.1, SVG Export Plug-In  -->
<svg version="1.1"
	 xmlns="http://www.w3.org/2000/svg" xmlns:xlink="http://www.w3.org/1999/xlink" xmlns:a="http://ns.adobe.com/AdobeSVGViewerExtensions/3.0/"
	 x="0px" y="0px" width="182.979px" height="127.501px" viewBox="0 0 182.979 127.501"
	 style="enable-background:new 0 0 182.979 127.501;" xml:space="preserve">
<style type="text/css">
	.st0{fill:#231815;}
	.st1{fill:#FFFFFF;}
</style>
<defs>
</defs>
<g>
	<path class="st0" d="M175.148,115.236H7.83c-4.317,0-7.83-3.513-7.83-7.83V7.83C0,3.513,3.513,0,7.83,0h167.318
		c4.317,0,7.83,3.513,7.83,7.83v99.576C182.979,111.724,179.466,115.236,175.148,115.236z M7.83,2C4.615,2,2,4.615,2,7.83v99.576
		c0,3.215,2.615,5.83,5.83,5.83h167.318c3.215,0,5.83-2.615,5.83-5.83V7.83c0-3.215-2.615-5.83-5.83-5.83H7.83z"/>
	<g>
		<rect x="68.242" y="114.236" class="st1" width="46.494" height="7.562"/>
		<path class="st0" d="M115.736,122.798H67.242v-9.562h48.494V122.798z M69.242,120.798h44.494v-5.562H69.242V120.798z"/>
	</g>
	<g>
		<path class="st1" d="M125.508,126.501H57.47c-1.299,0-2.352-1.053-2.352-2.352l0,0c0-1.299,1.053-2.352,2.352-2.352h68.038
			c1.299,0,2.352,1.053,2.352,2.352l0,0C127.86,125.448,126.807,126.501,125.508,126.501z"/>
		<path class="st0" d="M125.509,127.501H57.471c-1.848,0-3.352-1.504-3.352-3.352s1.504-3.352,3.352-3.352h68.038
			c1.848,0,3.352,1.504,3.352,3.352S127.356,127.501,125.509,127.501z M57.471,122.798c-0.745,0-1.352,0.606-1.352,1.352
			s0.606,1.352,1.352,1.352h68.038c0.745,0,1.352-0.606,1.352-1.352s-0.606-1.352-1.352-1.352H57.471z"/>
	</g>
	<path class="st0" d="M175.712,108.346H7.267V6.417h168.445V108.346z M9.267,106.346h164.445V8.417H9.267V106.346z"/>
</g>
<path class="st0" d="M114.326,80.073h-46.69V34.901c0-1.914,1.557-3.472,3.471-3.472h18.855c0.553,0,1,0.447,1,1s-0.447,1-1,1
	H71.106c-0.811,0-1.471,0.66-1.471,1.472v43.172h44.69c0.811,0,1.471-0.66,1.471-1.472V58.316c0-0.553,0.447-1,1-1s1,0.447,1,1
	v18.285C117.797,78.516,116.24,80.073,114.326,80.073z"/>
<path class="st0" d="M106.327,51.807c-0.303,0-0.602-0.137-0.798-0.396c-0.334-0.44-0.247-1.067,0.192-1.401l10.263-7.782
	c0.234-0.178,0.369-0.448,0.369-0.742s-0.135-0.564-0.369-0.742l-10.263-7.782c-0.439-0.334-0.526-0.961-0.192-1.401
	c0.332-0.438,0.96-0.526,1.401-0.192l10.263,7.782c0.737,0.56,1.16,1.411,1.16,2.336s-0.423,1.776-1.16,2.336l-10.263,7.782
	C106.75,51.74,106.537,51.807,106.327,51.807z"/>
<path class="st0" d="M89.637,70.159c-0.256,0-0.512-0.098-0.707-0.293c-7.854-7.854-5.894-16.62-2.864-22.59
	c2.125-4.189,6.429-6.791,11.229-6.791h20.059c0.553,0,1,0.447,1,1s-0.447,1-1,1H97.295c-4.044,0-7.663,2.183-9.446,5.695
	c-2.729,5.381-4.512,13.265,2.495,20.271c0.391,0.391,0.391,1.023,0,1.414C90.148,70.062,89.893,70.159,89.637,70.159z"/>
</svg>