<!-- Generator: Adobe Illustrator 19.2.1, SVG Export Plug-In  -->
<svg version="1.1"
	 xmlns="http://www.w3.org/2000/svg" xmlns:xlink="http://www.w3.org/1999/xlink" xmlns:a="http://ns.adobe.com/AdobeSVGViewerExtensions/3.0/"
	 x="0px" y="0px" width="182.978px" height="127.501px" viewBox="0 0 182.978 127.501"
	 style="enable-background:new 0 0 182.978 127.501;" xml:space="preserve">
<style type="text/css">
	.st0{fill:#231815;}
	.st1{fill:#FFFFFF;}
</style>
<defs>
</defs>
<g>
	<path class="st0" d="M175.147,115.236H7.83c-4.317,0-7.83-3.513-7.83-7.83V7.83C0,3.513,3.513,0,7.83,0h167.317
		c4.317,0,7.83,3.513,7.83,7.83v99.576C182.978,111.724,179.465,115.236,175.147,115.236z M7.83,2C4.615,2,2,4.615,2,7.83v99.576
		c0,3.215,2.615,5.83,5.83,5.83h167.317c3.215,0,5.83-2.615,5.83-5.83V7.83c0-3.215-2.615-5.83-5.83-5.83H7.83z"/>
	<g>
		<rect x="68.242" y="114.236" class="st1" width="46.494" height="7.562"/>
		<path class="st0" d="M115.736,122.798H67.241v-9.562h48.495V122.798z M69.241,120.798h44.495v-5.562H69.241V120.798z"/>
	</g>
	<g>
		<path class="st1" d="M125.508,126.501H57.47c-1.299,0-2.352-1.053-2.352-2.352v0c0-1.299,1.053-2.352,2.352-2.352h68.038
			c1.299,0,2.352,1.053,2.352,2.352v0C127.859,125.448,126.807,126.501,125.508,126.501z"/>
		<path class="st0" d="M125.508,127.501H57.47c-1.848,0-3.352-1.504-3.352-3.352s1.504-3.352,3.352-3.352h68.038
			c1.848,0,3.352,1.503,3.352,3.352S127.355,127.501,125.508,127.501z M57.47,122.798c-0.745,0-1.352,0.606-1.352,1.352
			c0,0.746,0.606,1.352,1.352,1.352h68.038c0.745,0,1.352-0.606,1.352-1.352c0-0.745-0.606-1.352-1.352-1.352H57.47z"/>
	</g>
	<path class="st0" d="M175.712,108.345H7.266V6.417h168.446V108.345z M9.266,106.345h164.446V8.417H9.266V106.345z"/>
</g>
<g>
	<path class="st1" d="M78.661,93.47H33.674c-1.366,0-2.473-1.107-2.473-2.473V24.239c0-1.366,1.107-2.473,2.473-2.473h44.987
		c1.366,0,2.473,1.107,2.473,2.473v66.758C81.133,92.363,80.026,93.47,78.661,93.47z"/>
	<path class="st0" d="M78.66,94.47H33.674c-1.915,0-3.473-1.558-3.473-3.473V24.239c0-1.915,1.558-3.473,3.473-3.473H78.66
		c1.915,0,3.473,1.558,3.473,3.473v66.759C82.133,92.913,80.575,94.47,78.66,94.47z M33.674,22.766
		c-0.812,0-1.473,0.661-1.473,1.473v66.759c0,0.812,0.66,1.473,1.473,1.473H78.66c0.812,0,1.473-0.661,1.473-1.473V24.239
		c0-0.812-0.66-1.473-1.473-1.473H33.674z"/>
</g>
<path class="st0" d="M123.832,22.766H90.108c-0.553,0-1-0.448-1-1s0.447-1,1-1h33.724c0.553,0,1,0.448,1,1
	S124.385,22.766,123.832,22.766z"/>
<path class="st0" d="M123.832,30.733H90.108c-0.553,0-1-0.448-1-1s0.447-1,1-1h33.724c0.553,0,1,0.448,1,1
	S124.385,30.733,123.832,30.733z"/>
<path class="st0" d="M123.832,38.701H90.108c-0.553,0-1-0.448-1-1s0.447-1,1-1h33.724c0.553,0,1,0.448,1,1
	S124.385,38.701,123.832,38.701z"/>
<path class="st0" d="M123.832,46.667H90.108c-0.553,0-1-0.448-1-1s0.447-1,1-1h33.724c0.553,0,1,0.448,1,1
	S124.385,46.667,123.832,46.667z"/>
<path class="st0" d="M160.316,62.602H90.108c-0.553,0-1-0.448-1-1s0.447-1,1-1h70.208c0.553,0,1,0.448,1,1
	S160.869,62.602,160.316,62.602z"/>
<path class="st0" d="M160.316,70.569H90.108c-0.553,0-1-0.448-1-1s0.447-1,1-1h70.208c0.553,0,1,0.448,1,1
	S160.869,70.569,160.316,70.569z"/>
<path class="st0" d="M160.316,54.635H90.108c-0.553,0-1-0.448-1-1s0.447-1,1-1h70.208c0.553,0,1,0.448,1,1
	S160.869,54.635,160.316,54.635z"/>
<path class="st0" d="M160.316,78.536H90.108c-0.553,0-1-0.448-1-1s0.447-1,1-1h70.208c0.553,0,1,0.448,1,1
	S160.869,78.536,160.316,78.536z"/>
<path class="st0" d="M160.316,94.47H90.108c-0.553,0-1-0.448-1-1s0.447-1,1-1h70.208c0.553,0,1,0.448,1,1
	S160.869,94.47,160.316,94.47z"/>
<path class="st0" d="M160.316,86.503H90.108c-0.553,0-1-0.448-1-1s0.447-1,1-1h70.208c0.553,0,1,0.448,1,1
	S160.869,86.503,160.316,86.503z"/>
</svg>