<!-- Generator: Adobe Illustrator 19.2.1, SVG Export Plug-In  -->
<svg version="1.1"
	 xmlns="http://www.w3.org/2000/svg" xmlns:xlink="http://www.w3.org/1999/xlink" xmlns:a="http://ns.adobe.com/AdobeSVGViewerExtensions/3.0/"
	 x="0px" y="0px" width="182.978px" height="127.501px" viewBox="0 0 182.978 127.501"
	 style="enable-background:new 0 0 182.978 127.501;" xml:space="preserve">
<style type="text/css">
	.st0{fill:#231815;}
	.st1{fill:#FFFFFF;}
</style>
<defs>
</defs>
<path class="st0" d="M72.321,52.721c-3.937,0-7.563-1.544-10.794-4.599C49.45,36.7,38.714,47.617,38.264,48.087
	c-0.38,0.398-1.014,0.414-1.413,0.03c-0.399-0.381-0.414-1.013-0.033-1.412c0.125-0.129,12.544-12.839,26.085-0.036
	c3.048,2.883,6.467,4.241,10.169,4.031c8.683-0.49,16.22-9.312,16.295-9.401c0.355-0.422,0.986-0.478,1.409-0.12
	c0.423,0.356,0.476,0.987,0.12,1.409c-0.33,0.391-8.178,9.571-17.712,10.108C72.895,52.713,72.607,52.721,72.321,52.721z"/>
<path class="st0" d="M69.329,64.169c-4.113,0-7.895-1.605-11.251-4.778c-12.111-11.455-22.813-0.508-23.262-0.036
	c-0.38,0.4-1.015,0.414-1.414,0.033s-0.414-1.015-0.033-1.414c0.124-0.13,12.546-12.839,26.084-0.036
	c3.127,2.957,6.629,4.376,10.454,4.22c8.574-0.354,15.956-8.481,16.03-8.563c0.37-0.411,1.001-0.444,1.412-0.076
	s0.445,1.001,0.076,1.412c-0.323,0.36-8.028,8.838-17.437,9.226C69.769,64.165,69.549,64.169,69.329,64.169z"/>
<path class="st0" d="M66.047,74.892c-4.259,0-8.973-1.427-13.518-5.724c-3.403-3.219-7.018-4.694-10.713-4.365
	c-7.133,0.619-12.418,7.61-12.471,7.682c-0.329,0.443-0.955,0.535-1.399,0.204c-0.442-0.33-0.534-0.956-0.204-1.399
	c0.236-0.317,5.883-7.783,13.901-8.479c4.299-0.381,8.425,1.277,12.261,4.904c5.103,4.825,11,6.314,17.523,4.415
	c4.929-1.432,8.358-4.322,8.393-4.351c0.421-0.359,1.052-0.31,1.409,0.112c0.358,0.42,0.309,1.052-0.112,1.409
	C81.019,69.386,74.411,74.891,66.047,74.892z"/>
<g>
	<path class="st0" d="M175.147,115.236H7.83c-4.317,0-7.83-3.513-7.83-7.83V7.83C0,3.513,3.513,0,7.83,0h167.317
		c4.317,0,7.83,3.513,7.83,7.83v99.576C182.978,111.724,179.465,115.236,175.147,115.236z M7.83,2C4.615,2,2,4.615,2,7.83v99.576
		c0,3.215,2.615,5.83,5.83,5.83h167.317c3.215,0,5.83-2.615,5.83-5.83V7.83c0-3.215-2.615-5.83-5.83-5.83H7.83z"/>
	<g>
		<rect x="68.242" y="114.237" class="st1" width="46.494" height="7.562"/>
		<path class="st0" d="M115.736,122.798H67.241v-9.562h48.495V122.798z M69.241,120.798h44.495v-5.562H69.241V120.798z"/>
	</g>
	<g>
		<path class="st1" d="M125.508,126.501H57.47c-1.299,0-2.352-1.053-2.352-2.352v0c0-1.299,1.053-2.352,2.352-2.352h68.038
			c1.299,0,2.352,1.053,2.352,2.352v0C127.859,125.449,126.807,126.501,125.508,126.501z"/>
		<path class="st0" d="M125.508,127.501H57.47c-1.848,0-3.352-1.504-3.352-3.352s1.504-3.352,3.352-3.352h68.038
			c1.848,0,3.352,1.504,3.352,3.352S127.355,127.501,125.508,127.501z M57.47,122.798c-0.745,0-1.352,0.606-1.352,1.352
			s0.606,1.352,1.352,1.352h68.038c0.745,0,1.352-0.606,1.352-1.352s-0.606-1.352-1.352-1.352H57.47z"/>
	</g>
	<path class="st0" d="M175.712,108.346H7.266V6.417h168.446V108.346z M9.266,106.346h164.446V8.417H9.266V106.346z"/>
</g>
<path class="st0" d="M117.507,79.659c-12.705,0-23.042-10.336-23.042-23.041s10.337-23.042,23.042-23.042
	s23.041,10.337,23.041,23.042S130.212,79.659,117.507,79.659z M117.507,35.576c-11.603,0-21.042,9.439-21.042,21.042
	s9.439,21.041,21.042,21.041s21.041-9.438,21.041-21.041S129.109,35.576,117.507,35.576z"/>
<path class="st0" d="M117.507,55.023c-0.553,0-1-0.447-1-1v-10.96c0-0.553,0.447-1,1-1s1,0.447,1,1v10.96
	C118.507,54.576,118.06,55.023,117.507,55.023z"/>
<path class="st0" d="M117.507,57.413c-0.422,0-0.814-0.269-0.951-0.692c-0.17-0.525,0.118-1.089,0.644-1.259l17.14-5.549
	c0.523-0.171,1.09,0.117,1.259,0.644c0.17,0.525-0.118,1.089-0.644,1.259l-17.14,5.549
	C117.713,57.397,117.608,57.413,117.507,57.413z"/>
<g>
	<circle class="st1" cx="117.507" cy="56.618" r="2.594"/>
	<path class="st0" d="M117.507,60.212c-1.981,0-3.594-1.612-3.594-3.594c0-1.982,1.612-3.595,3.594-3.595s3.594,1.612,3.594,3.595
		C121.101,58.6,119.488,60.212,117.507,60.212z M117.507,55.023c-0.879,0-1.594,0.716-1.594,1.595s0.715,1.594,1.594,1.594
		s1.594-0.715,1.594-1.594S118.386,55.023,117.507,55.023z"/>
</g>
<path class="st0" d="M117.507,35.576c-0.553,0-1-0.447-1-1v-4.411c0-0.553,0.447-1,1-1s1,0.447,1,1v4.411
	C118.507,35.129,118.06,35.576,117.507,35.576z"/>
<path class="st0" d="M122.227,31.165h-9.44c-0.553,0-1-0.447-1-1s0.447-1,1-1h9.44c0.553,0,1,0.447,1,1
	S122.779,31.165,122.227,31.165z"/>
</svg>